<svg xmlns="http://www.w3.org/2000/svg" viewBox="0 0 512 512">
  <defs>
    <linearGradient id="civicGrad" x1="0%" y1="0%" x2="100%" y2="100%">
      <stop offset="0%" stop-color="#2563EB" />
      <stop offset="50%" stop-color="#4F46E5" />
      <stop offset="100%" stop-color="#7C3AED" />
    </linearGradient>
  </defs>
  <rect width="512" height="512" rx="128" fill="url(#civicGrad)" />
  <path fill="#FFFFFF" d="M256 96c-88.37 0-160 71.63-160 160 0 42.14 16.32 80.51 43 10.11L256 416l117-50.89c26.68-28.6 43-66.97 43-109.11 0-88.37-71.63-160-160-160zm0 48c61.86 0 112 50.14 112 112 0 30.08-11.83 57.45-31.06 77.67L256 371l-80.94-37.33C155.83 313.45 144 286.08 144 256c0-61.86 50.14-112 112-112zm-48 64v104h32V248h32v64h32V208h-96z" />
</svg>